<svg display="none" xmlns="http://www.w3.org/2000/svg">
	<symbol id="start-button" viewBox="0 0 254 254">
		<g>
			<path d="M112.209 19.848c-0.841 0.203-4.973 0.928-9.181 1.61-79.032 12.819-116.413 109.221-67.485 174.036 15.237 20.184 50.228 43.039 51.961 33.939 0.217-1.137-1.866-2.575-7.036-4.858-21.21-9.368-40.403-27.824-50.875-48.92-38.034-76.618 27.038-163.321 112.012-149.247 12.765 2.115 14.982-2.293 2.472-4.916-5.694-1.194-28.796-2.385-31.868-1.643zM112.719 42.441c-14.943 2.202-34.172 9.853-34.172 13.597 0 2.905 2.158 2.68 10.045-1.047 43.201-20.411 95.797 1.922 111.446 47.322 26.011 75.463-59.858 139.343-125.061 93.034-36.232-25.733-44.587-76.844-18.577-113.647 6.902-9.766 3.27-13.895-3.778-4.294-43.425 59.158 1.913 142.717 75.175 138.546 73.956-4.21 109.316-92.829 58.424-146.419-18.657-19.646-48.755-30.74-73.501-27.094zM201.636 55.764c-1.517 1.517-0.358 4.232 4.498 10.541 36 46.77 24.213 116.679-25.216 149.569-22.273 14.82-41.829 18.928-78.399 16.469-3.444-0.232-4.081 0.032-4.081 1.692 0 7.539 43.772 5.495 65.475-3.059 63.64-25.081 88.732-106.043 50.371-162.531-7.279-10.718-10.94-14.389-12.649-12.68zM93.24 93.953c-1.809 1.998-1.964 4.341-2.241 33.859-0.455 48.527-5.285 47.060 53.309 16.191 28.556-15.045 28.716-14.573-12.24-36.057-32.021-16.797-35.238-17.957-38.828-13.993zM128.627 112.312c31.112 16.25 31.274 16.351 29.098 18.157-2.44 2.026-57.918 30.704-59.395 30.704-1.186 0-1.422-5.333-1.422-32.132 0-22.539 0.333-32.133 1.114-32.133 0.612 0 14.385 6.932 30.606 15.404z"></path>
		</g>
	</symbol>
	<symbol id="pause-button" viewBox="0 0 36 36">
		<g><path d="M15.047 34.594v-33.194c0-0.618-0.498-1.116-1.126-1.116h-6.607c-0.628 0-1.126 0.498-1.126 1.116v33.194c0 0.618 0.498 1.126 1.126 1.126h6.607c0.628 0 1.126-0.498 1.126-1.126z"></path>
		<path d="M28.687 0.281h-6.607c-0.618 0-1.126 0.498-1.126 1.116v33.194c0 0.618 0.498 1.126 1.126 1.126h6.607c0.618 0 1.126-0.498 1.126-1.126v-33.194c0-0.618-0.498-1.116-1.126-1.116z"></path></g>
	</symbol>
	<symbol id="play-button" viewBox="0 0 23 30">
		<g><path d="M22.35 14.75L0 0C0 22.23 0 11.32 0 29.49L22.35 14.75Z"/></g>
	</symbol>
	<symbol id="volume-button" viewBox="0 0 36 36">
		<g><path d="M17.995 2.95c-0.429 0-0.801 0.157-1.115 0.471l-8.248 8.248h-6.489c-0.43 0-0.801 0.157-1.115 0.471s-0.471 0.686-0.471 1.115v9.51c0 0.429 0.157 0.801 0.471 1.115s0.686 0.471 1.115 0.471h6.489l8.248 8.248c0.314 0.314 0.685 0.471 1.115 0.471s0.801-0.157 1.115-0.471 0.471-0.685 0.471-1.115v-26.948c0-0.429-0.157-0.801-0.47-1.115s-0.685-0.471-1.115-0.471z"></path>
		<path d="M28.040 21.515c0.702-1.081 1.053-2.249 1.053-3.505s-0.351-2.428-1.053-3.518c-0.702-1.090-1.63-1.858-2.787-2.304-0.165-0.082-0.372-0.124-0.619-0.124-0.429 0-0.801 0.153-1.115 0.458-0.314 0.307-0.471 0.681-0.471 1.127 0 0.347 0.099 0.64 0.298 0.879s0.437 0.446 0.718 0.619c0.28 0.173 0.561 0.363 0.842 0.57s0.52 0.499 0.718 0.879c0.198 0.38 0.297 0.851 0.297 1.412s-0.099 1.032-0.297 1.412c-0.198 0.38-0.437 0.673-0.718 0.879s-0.562 0.397-0.842 0.57c-0.281 0.173-0.52 0.38-0.718 0.619s-0.298 0.533-0.298 0.879c0 0.446 0.158 0.821 0.471 1.127 0.314 0.304 0.685 0.459 1.115 0.459 0.247 0 0.454-0.041 0.619-0.124 1.156-0.463 2.085-1.235 2.787-2.317z"></path>
		<path d="M33.327 25.008c1.404-2.137 2.106-4.471 2.106-6.999 0-2.527-0.702-4.859-2.106-6.999-1.404-2.137-3.262-3.695-5.573-4.669-0.214-0.082-0.429-0.124-0.644-0.124-0.429 0-0.801 0.157-1.115 0.471s-0.47 0.685-0.47 1.115c0 0.644 0.322 1.131 0.966 1.462 0.924 0.479 1.552 0.842 1.882 1.090 1.222 0.892 2.176 2.010 2.861 3.356s1.028 2.778 1.028 4.299c0 1.519-0.343 2.952-1.028 4.299-0.685 1.346-1.639 2.464-2.861 3.356-0.33 0.248-0.958 0.611-1.882 1.090-0.644 0.331-0.966 0.817-0.966 1.462 0 0.429 0.157 0.801 0.47 1.115s0.693 0.471 1.139 0.471c0.198 0 0.405-0.042 0.619-0.124 2.311-0.975 4.17-2.531 5.573-4.67z"></path></g>
	</symbol>
	<symbol id="volume-icon-vertical" viewBox="0 0 36 36">
		<g><path d="M17.995 2.95c-0.429 0-0.801 0.157-1.115 0.471l-8.248 8.248h-6.489c-0.43 0-0.801 0.157-1.115 0.471s-0.471 0.686-0.471 1.115v9.51c0 0.429 0.157 0.801 0.471 1.115s0.686 0.471 1.115 0.471h6.489l8.248 8.248c0.314 0.314 0.685 0.471 1.115 0.471s0.801-0.157 1.115-0.471 0.471-0.685 0.471-1.115v-26.948c0-0.429-0.157-0.801-0.47-1.115s-0.685-0.471-1.115-0.471z"></path>
		<path d="M28.040 21.515c0.702-1.081 1.053-2.249 1.053-3.505s-0.351-2.428-1.053-3.518c-0.702-1.090-1.63-1.858-2.787-2.304-0.165-0.082-0.372-0.124-0.619-0.124-0.429 0-0.801 0.153-1.115 0.458-0.314 0.307-0.471 0.681-0.471 1.127 0 0.347 0.099 0.64 0.298 0.879s0.437 0.446 0.718 0.619c0.28 0.173 0.561 0.363 0.842 0.57s0.52 0.499 0.718 0.879c0.198 0.38 0.297 0.851 0.297 1.412s-0.099 1.032-0.297 1.412c-0.198 0.38-0.437 0.673-0.718 0.879s-0.562 0.397-0.842 0.57c-0.281 0.173-0.52 0.38-0.718 0.619s-0.298 0.533-0.298 0.879c0 0.446 0.158 0.821 0.471 1.127 0.314 0.304 0.685 0.459 1.115 0.459 0.247 0 0.454-0.041 0.619-0.124 1.156-0.463 2.085-1.235 2.787-2.317z"></path>
		<path d="M33.327 25.008c1.404-2.137 2.106-4.471 2.106-6.999 0-2.527-0.702-4.859-2.106-6.999-1.404-2.137-3.262-3.695-5.573-4.669-0.214-0.082-0.429-0.124-0.644-0.124-0.429 0-0.801 0.157-1.115 0.471s-0.47 0.685-0.47 1.115c0 0.644 0.322 1.131 0.966 1.462 0.924 0.479 1.552 0.842 1.882 1.090 1.222 0.892 2.176 2.010 2.861 3.356s1.028 2.778 1.028 4.299c0 1.519-0.343 2.952-1.028 4.299-0.685 1.346-1.639 2.464-2.861 3.356-0.33 0.248-0.958 0.611-1.882 1.090-0.644 0.331-0.966 0.817-0.966 1.462 0 0.429 0.157 0.801 0.47 1.115s0.693 0.471 1.139 0.471c0.198 0 0.405-0.042 0.619-0.124 2.311-0.975 4.17-2.531 5.573-4.67z"></path></g>
	</symbol>
		<symbol id="mute-button" viewBox="0 0 36 36">
		<g><path d="M18.405 2.387c-0.445 0-0.831 0.163-1.156 0.488l-8.556 8.556h-6.732c-0.446 0-0.831 0.163-1.156 0.488s-0.488 0.711-0.488 1.156v9.865c0 0.445 0.163 0.831 0.488 1.156s0.711 0.488 1.156 0.488h6.732l8.556 8.556c0.326 0.325 0.711 0.488 1.156 0.488s0.831-0.163 1.156-0.488 0.488-0.711 0.488-1.156v-27.955c0-0.445-0.163-0.831-0.488-1.156s-0.711-0.488-1.156-0.488z"></path>
		<path d="M31.902 18.679l3.468-3.468c0.22-0.22 0.33-0.488 0.33-0.802s-0.11-0.582-0.33-0.802l-1.604-1.604c-0.22-0.22-0.488-0.33-0.802-0.33s-0.582 0.11-0.802 0.33l-3.468 3.468-3.468-3.468c-0.22-0.22-0.488-0.33-0.802-0.33s-0.582 0.11-0.802 0.33l-1.604 1.604c-0.22 0.22-0.33 0.488-0.33 0.802s0.11 0.582 0.33 0.802l3.468 3.468-3.468 3.468c-0.22 0.22-0.33 0.488-0.33 0.802s0.11 0.582 0.33 0.802l1.604 1.604c0.22 0.22 0.488 0.33 0.802 0.33s0.582-0.11 0.802-0.33l3.468-3.468 3.468 3.468c0.22 0.22 0.487 0.33 0.802 0.33s0.582-0.11 0.802-0.33l1.604-1.604c0.22-0.22 0.33-0.488 0.33-0.802s-0.11-0.582-0.33-0.802l-3.468-3.468z"></path></g>
	</symbol>
	<symbol id="fullscreen-button" viewBox="0 0 14 14">
		<g><path d="M2,9 L0,9 L0,14 L5,14 L5,12 L2,12 L2,9 L2,9 Z M0,5 L2,5 L2,2 L5,2 L5,0 L0,0 L0,5 L0,5 Z M12,12 L9,12 L9,14 L14,14 L14,9 L12,9 L12,12 L12,12 Z M9,0 L9,2 L12,2 L12,5 L14,5 L14,0 L9,0 L9,0 Z"/></g>
	</symbol>
	<symbol id="fullscreen-button-off" viewBox="0 0 14 14">
		<g><path d="M0,11 L3,11 L3,14 L5,14 L5,9 L0,9 L0,11 L0,11 Z M3,3 L0,3 L0,5 L5,5 L5,0 L3,0 L3,3 L3,3 Z M9,14 L11,14 L11,11 L14,11 L14,9 L9,9 L9,14 L9,14 Z M11,3 L11,0 L9,0 L9,5 L14,5 L14,3 L11,3 L11,3 Z"/></g>
	</symbol>
	<symbol id="instagram" viewBox="0 0 32 32">
		<g><path d="M17.36 2.66699C19.76 2.66699 20.267 2.69399 21.493 2.74699C22.906 2.81399 23.88 3.03999 24.72 3.37399C25.6 3.70699 26.347 4.17399 27.08 4.90699C27.827 5.63999 28.28 6.38699 28.627 7.26699C28.96 8.10699 29.174 9.07999 29.24 10.507C29.307 11.774 29.32 12.267 29.32 14.934V17.067C29.32 19.734 29.307 20.227 29.24 21.494C29.217 22.659 28.994 23.764 28.604 24.788L28.626 24.721C28.279 25.601 27.826 26.348 27.093 27.081C26.346 27.828 25.6 28.281 24.72 28.628C23.88 28.961 22.907 29.175 21.493 29.241C20.226 29.308 19.72 29.321 17.053 29.321H14.933C12.266 29.321 11.773 29.308 10.493 29.241C9.32796 29.218 8.22296 28.995 7.19896 28.605L7.26596 28.627C6.34296 28.274 5.55596 27.753 4.90696 27.094L4.90596 27.093C4.23996 26.441 3.71396 25.649 3.37396 24.764L3.35896 24.719C2.99196 23.763 2.76896 22.657 2.74596 21.502V21.492C2.69296 20.45 2.66296 19.229 2.66296 18.002C2.66296 17.776 2.66396 17.55 2.66596 17.325V17.359V14.626C2.66596 12.226 2.69296 11.719 2.74596 10.493C2.81296 9.07999 3.03896 8.10599 3.35896 7.26599C3.70596 6.38599 4.15896 5.63899 4.90596 4.90599C5.55096 4.23899 6.33996 3.71599 7.22296 3.38699L7.26596 3.37299C8.22096 3.00199 9.32596 2.77399 10.481 2.74699H10.493C11.72 2.69399 12.226 2.66699 14.626 2.66699H17.36ZM17.387 5.06699H14.6C12.293 5.06699 11.8 5.09399 10.6 5.14699C9.30696 5.19999 8.59996 5.41399 8.13296 5.59999C7.50596 5.83999 7.06596 6.13299 6.59996 6.59999C6.13396 7.06699 5.83996 7.50699 5.59996 8.13299C5.42696 8.59999 5.19996 9.30599 5.14696 10.613C5.09396 11.813 5.06696 12.293 5.06696 14.613V17.386C5.06696 19.706 5.09396 20.186 5.14696 21.386C5.19996 22.679 5.41396 23.386 5.59996 23.853C5.83996 24.48 6.13296 24.92 6.59996 25.386C7.06696 25.852 7.50696 26.146 8.13296 26.386C8.59996 26.573 9.30596 26.786 10.613 26.839C11.906 26.906 12.373 26.919 15.253 26.919H16.733C19.626 26.919 20.08 26.906 21.386 26.839C22.679 26.786 23.386 26.572 23.853 26.386C24.48 26.146 24.92 25.853 25.386 25.386C25.852 24.919 26.146 24.479 26.386 23.853C26.573 23.386 26.786 22.68 26.839 21.386C26.906 20.079 26.919 19.626 26.919 16.733V15.266C26.919 12.373 26.906 11.906 26.839 10.599C26.786 9.30599 26.572 8.59899 26.386 8.13199C26.16 7.53099 25.819 7.01799 25.387 6.59999L25.386 6.59899C24.966 6.16599 24.454 5.82499 23.881 5.60799L23.853 5.59899C23.121 5.32299 22.275 5.15799 21.391 5.14599H21.386C20.358 5.09399 19.155 5.06399 17.944 5.06399C17.748 5.06399 17.552 5.06499 17.356 5.06599H17.386L17.387 5.06699ZM16 9.14699C19.781 9.14699 22.847 12.212 22.847 15.994C22.847 19.776 19.782 22.841 16 22.841C12.219 22.841 9.15296 19.776 9.15296 15.994C9.15296 12.212 12.218 9.14699 16 9.14699ZM16 11.547C13.544 11.547 11.553 13.538 11.553 15.994C11.553 18.45 13.544 20.441 16 20.441C18.456 20.441 20.447 18.45 20.447 15.994C20.447 13.538 18.456 11.547 16 11.547ZM23.107 7.27999C23.991 7.27999 24.707 7.99599 24.707 8.87999C24.707 9.76399 23.991 10.48 23.107 10.48C22.223 10.48 21.507 9.76399 21.507 8.87999C21.507 7.99599 22.223 7.27999 23.107 7.27999Z"/></g>
	</symbol>
	<symbol id="facebook" viewBox="0 0 32 32">
		<g><path d="M13.04 29.333L13 17.666H8V12.666H13V9.33302C13 4.84002 15.787 2.66602 19.8 2.66602C21.72 2.66602 23.373 2.79902 23.853 2.86602V7.57302H21.066C18.893 7.57302 18.466 8.61302 18.466 10.133V12.666H24.666L22.999 17.666H18.466V29.333H13.039H13.04Z"/></g>
	</symbol>
	<symbol id="twitter" viewBox="0 0 32 32">
		<g><path d="M29.333 7.83998C28.333 8.33298 27.333 8.50698 26.16 8.66698C27.333 7.99998 28.16 6.99998 28.493 5.66698C27.488 6.27498 26.317 6.73798 25.07 6.98898L25 7.00098C23.969 5.98698 22.56 5.35498 21.004 5.33398H21C18.16 5.33398 15.667 7.84098 15.667 10.841C15.667 11.334 15.667 11.668 15.84 12.001C11.262 11.823 7.22097 9.66398 4.52897 6.36198L4.50697 6.33398C4.08197 7.05998 3.83097 7.93198 3.83097 8.86298C3.83097 8.97198 3.83397 9.08098 3.84097 9.18898L3.83997 9.17398C3.87397 11.052 4.84897 12.695 6.31297 13.655L6.33397 13.668C5.49397 13.668 4.66697 13.335 3.82697 13.001C3.82697 15.668 5.66697 17.841 8.15997 18.334C7.66697 18.507 7.15997 18.507 6.66697 18.507C6.33397 18.507 5.99997 18.507 5.66697 18.334C6.33397 20.507 8.33397 22.174 10.84 22.174C9.03997 23.629 6.72397 24.509 4.20297 24.509C4.13197 24.509 4.06097 24.508 3.98997 24.507H4.00097H2.66797C5.03297 26.016 7.90397 26.936 10.984 27H11.001C21.001 27 26.508 18.667 26.508 11.493V10.826C27.655 10.036 28.601 9.03898 29.311 7.88198L29.335 7.83998H29.333Z"/></g>
	</symbol>
	<symbol id="pinterest" viewBox="0 0 32 32">
		<g><path d="M16 2.66699C8.65699 2.69399 2.71399 8.65299 2.71399 16C2.71399 21.599 6.16599 26.393 11.057 28.368L11.146 28.4C11.013 27.347 10.919 25.733 11.186 24.573L12.746 17.946C12.746 17.946 12.346 17.146 12.346 15.973C12.346 14.12 13.426 12.746 14.773 12.746C15.906 12.746 16.466 13.599 16.466 14.613C16.466 15.76 15.733 17.466 15.346 19.053C15.026 20.386 16.013 21.466 17.333 21.466C19.706 21.466 21.52 18.973 21.52 15.373C21.52 12.173 19.227 9.95999 15.947 9.95999C15.871 9.95599 15.783 9.95399 15.694 9.95399C12.505 9.95399 9.92099 12.539 9.92099 15.727C9.92099 15.729 9.92099 15.731 9.92099 15.733C9.92099 16.88 10.361 18.106 10.908 18.773C11.015 18.906 11.028 19.026 10.988 19.16L10.615 20.667C10.562 20.907 10.415 20.974 10.175 20.854C8.49499 20.067 7.45499 17.654 7.45499 15.681C7.45499 11.481 10.522 7.62799 16.282 7.62799C20.895 7.62799 24.509 10.908 24.509 15.321C24.509 19.921 21.602 23.614 17.576 23.614C16.243 23.614 14.963 22.907 14.536 22.081L13.696 25.241C13.265 26.578 12.704 27.739 12.008 28.804L12.042 28.748C13.212 29.12 14.558 29.335 15.953 29.335C23.317 29.335 29.286 23.365 29.286 16.002C29.286 8.65499 23.344 2.69599 16.004 2.66899H16.001L16 2.66699Z"/></g>
	</symbol>
</svg>